inDegrees=yes
name=ik_lifting_orientations
DataType=double
version=3
OpenSimVersion=4.5-2024-01-10-34fd6af
endheader
time	pelvis_tilt	pelvis_list	pelvis_rotation	pelvis_tx	pelvis_ty	pelvis_tz	hip_flexion_r	hip_adduction_r	hip_rotation_r	knee_angle_r	knee_angle_r_beta	ankle_angle_r	subtalar_angle_r	mtp_angle_r	hip_flexion_l	hip_adduction_l	hip_rotation_l	knee_angle_l	knee_angle_l_beta	ankle_angle_l	subtalar_angle_l	mtp_angle_l	lumbar_extension	lumbar_bending	lumbar_rotation	arm_flex_r	arm_add_r	arm_rot_r	elbow_flex_r	pro_sup_r	wrist_flex_r	wrist_dev_r	arm_flex_l	arm_add_l	arm_rot_l	elbow_flex_l	pro_sup_l	wrist_flex_l	wrist_dev_l
3.29	1.278070143061369	-1.904043395406419	-88.62608293886066	0	0.9399999998679526	0	44.95053727439483	-10.12286002071481	0	60.14246639782727	1.04968405891214	-5.026281220685226	0	0	44.95053727439483	-10.12286002071481	0	60.14246639782727	1.04968405891214	-5.026281220685226	0	0	-0.08002277163901912	-1.077873295653542	15.87050357624034	-12.81983917306051	-1.635474968025584	-25.5612035180657	7.840781872428454	1.289403546641541	0	0	0	-11.48558875996472	0	88.74008773249682	1.289403546641541	0	0
3.3	1.290179089592488	-1.903946145312247	-88.60842689801636	0	0.9399999998679526	0	44.95063519752111	-10.12209903333376	0	60.14224355156809	1.049680169511191	-5.026077854607128	0	0	44.95063519752111	-10.12209903333376	0	60.14224355156809	1.049680169511191	-5.026077854607128	0	0	-0.01514014283920094	-1.105913084587509	15.84731077609731	-12.84776425032192	-1.620046436050816	-25.54567738177871	7.756818790606752	1.287602196756501	0	0	0	-11.4892343029696	0	88.74184762515004	1.287602196756501	0	0
3.31	1.273900142175545	-1.912839644376451	-88.90463551250362	0	0.9399999998679526	0	44.95064053137502	-10.12205507781949	0	60.14223104567521	1.049679951242185	-5.026065721918162	0	0	44.95064053137502	-10.12205507781949	0	60.14223104567521	1.049679951242185	-5.026065721918162	0	0	0.001317256157855081	-1.139728454155717	16.04491784726054	-12.82354281184646	-1.603938493680171	-25.39473310931264	7.7959058355986	1.28750397320094	0	0	0	-11.48943393177009	0	88.74194358811967	1.28750397320094	0	0
3.32	1.243628361080708	-1.861885472492408	-89.23113515781978	0	0.9399999998679526	0	44.9506472930976	-10.12199833477852	0	60.14221541366354	1.049679678412112	-5.026050004482881	0	0	44.9506472930976	-10.12199833477852	0	60.14221541366354	1.049679678412112	-5.026050004482881	0	0	0.07480068211560943	-1.14614935175936	16.25479324276869	-12.83427854281568	-1.594975030882712	-25.26410648673712	7.821284146904953	1.287380136521676	0	0	0	-11.48968446538438	0	88.74206457470811	1.287380136521676	0	0
3.33	1.226195194481208	-1.79581303050282	-89.26270913796102	0	0.9399999998679526	0	44.95085359882616	-10.12035311090768	0	60.14174725938233	1.049671507578498	-5.025606130091032	0	0	44.95085359882616	-10.12035311090768	0	60.14174725938233	1.049671507578498	-5.025606130091032	0	0	0.1990554175487236	-1.161380796493663	16.19461940693615	-12.90309381867459	-1.544756912286407	-25.1575137784682	7.871087956935258	1.283598753551557	0	0	0	-11.49731978433796	0	88.74575893015846	1.283598753551557	0	0
3.34	1.22857858477521	-1.710804246029088	-89.13923634114944	0	0.9399999998679526	0	44.95105711930599	-10.11870514214292	0	60.1412855671533	1.04966344952897	-5.025158423874578	0	0	44.95105711930599	-10.11870514214292	0	60.1412855671533	1.04966344952897	-5.025158423874578	0	0	0.32164191955851	-1.196146165850243	16.00868663890338	-12.91056459448597	-1.539589781828012	-25.08129574771723	7.833157453756631	1.279874194168414	0	0	0	-11.50483430573533	0	88.74939776945855	1.279874194168414	0	0
3.35	1.18347623558292	-1.674229027891532	-89.5938397718695	0	0.9399999998679526	0	44.9510649828845	-10.11864036832055	0	60.14126736608547	1.049663131860409	-5.025140615218382	0	0	44.9510649828845	-10.11864036832055	0	60.14126736608547	1.049663131860409	-5.025140615218382	0	0	0.3776596428298805	-1.164851253078221	16.36473478221787	-12.90793242629513	-1.537421393349162	-24.96657293114777	7.827684382473897	1.279729846542229	0	0	0	-11.50512672756712	0	88.74953879495348	1.279729846542229	0	0
3.36	1.167930617232135	-1.599564346766923	-89.68250610505831	0	0.9399999998679526	0	44.95126894150617	-10.11703499063282	0	60.14080389543842	1.049655042771632	-5.024709634202147	0	0	44.95126894150617	-10.11703499063282	0	60.14080389543842	1.049655042771632	-5.024709634202147	0	0	0.4964638243520403	-1.1508847019384	16.41925651840198	-12.94265864717792	-1.527671692254376	-24.92163027857015	7.833783330159998	1.275984794058561	0	0	0	-11.51269710503469	0	88.75319765637678	1.275984794058561	0	0
3.37	1.128423316613908	-1.567202622988854	-89.68945644837235	0	0.9399999998679526	0	44.95138848183252	-10.11612287136776	0	60.14053131870695	1.049650285410203	-5.024467499453654	0	0	44.95138848183252	-10.11612287136776	0	60.14053131870695	1.049650285410203	-5.024467499453654	0	0	0.5912446158553551	-1.140392622328553	16.31096496891209	-12.99641134888653	-1.503817439564352	-24.77267954804956	7.913579244178568	1.273780235280365	0	0	0	-11.51716549117605	0	88.75535147850719	1.273780235280365	0	0
3.38	1.110027222875436	-1.547278487950126	-89.79923533587036	0	0.9399999998679526	0	44.95159262476214	-10.11454807019176	0	60.14006683015725	1.049642178555673	-5.024048152380248	0	0	44.95159262476214	-10.11454807019176	0	60.14006683015725	1.049642178555673	-5.024048152380248	0	0	0.6133047022994801	-1.125857670535349	16.34812136241015	-12.97391214357055	-1.491574166436534	-24.70618812957671	7.912649878899021	1.270022506719359	0	0	0	-11.52477248911058	0	88.75902272475585	1.270022506719359	0	0
3.39	1.123268685935235	-1.626301972889931	-89.61663660065763	0	0.9399999998679526	0	44.95160223150139	-10.11446994064194	0	60.14004474881102	1.049641793163478	-5.02402682522727	0	0	44.95160223150139	-10.11446994064194	0	60.14004474881102	1.049641793163478	-5.02402682522727	0	0	0.5784938536338375	-1.168822830254195	16.11398846909771	-12.99948596656013	-1.424936769406302	-24.58897514512014	7.942616889473896	1.269846221445391	0	0	0	-11.52512923886236	0	88.75919495286489	1.269846221445391	0	0
3.4	1.175235079625862	-1.749766004235769	-89.57855836943108	0	0.9399999998679526	0	44.95170975892503	-10.11368425796045	0	60.13979862600287	1.049637497510112	-5.023821928076947	0	0	44.95170975892503	-10.11368425796045	0	60.13979862600287	1.049637497510112	-5.023821928076947	0	0	0.521453538607261	-1.242336173342053	15.94420386003912	-13.06316309508856	-1.417152540579127	-24.44479009485793	7.933871807038719	1.267852350479164	0	0	0	-11.52918399054445	0	88.76114293658654	1.267852350479164	0	0
3.41	1.203979922170584	-1.796134093513693	-89.49506122502309	0	0.9399999998679526	0	44.95181255360549	-10.11292410022151	0	60.13956369752349	1.04963339723464	-5.02362283530505	0	0	44.95181255360549	-10.11292410022151	0	60.13956369752349	1.04963339723464	-5.02362283530505	0	0	0.4939317367384551	-1.259166448771744	15.81808126551876	-13.07378797108172	-1.46255698769953	-24.34299044379172	7.898483695416149	1.265949527902053	0	0	0	-11.53304935798349	0	88.76300196715341	1.265949527902053	0	0
3.42	1.150835737169206	-1.728329387701167	-89.29311533492937	0	0.9399999998679526	0	44.95202328652415	-10.11132608703665	0	60.13908288988052	1.049625005558201	-5.023199756672052	0	0	44.95202328652415	-10.11132608703665	0	60.13908288988052	1.049625005558201	-5.023199756672052	0	0	0.5962592453360852	-1.229822892354326	15.53770708366712	-13.10149386045664	-1.436257155768324	-24.24047859118265	7.937672509793462	1.262060140123467	0	0	0	-11.54093661657531	0	88.76680184302418	1.262060140123467	0	0
3.43	1.174935176125807	-1.74561849729038	-88.80060664206461	0	0.9399999998679526	0	44.95203670626398	-10.11121888890208	0	60.13905202806101	1.049624466917838	-5.02317070120361	0	0	44.95203670626398	-10.11121888890208	0	60.13905202806101	1.049624466917838	-5.02317070120361	0	0	0.623304051719422	-1.286758425067287	14.97813985258332	-13.13822010722206	-1.423851440777108	-24.11881083576986	7.979668372326852	1.261813360902053	0	0	0	-11.54143661594596	0	88.76704294270677	1.261813360902053	0	0
3.44	1.211374860409051	-1.663190560534318	-88.73713653083945	0	0.9399999998679526	0	44.95204678991409	-10.11113777244671	0	60.13902897435128	1.049624064554698	-5.023148687458126	0	0	44.95204678991409	-10.11113777244671	0	60.13902897435128	1.049624064554698	-5.023148687458126	0	0	0.7077210287426821	-1.32659095150686	14.86037663289141	-13.09660773555768	-1.405734412169602	-23.977794951886	7.940295448627966	1.261628343098399	0	0	0	-11.54181077122956	0	88.76722370237418	1.261628343098399	0	0
3.45	1.232987724514891	-1.648852300867247	-88.67406780078392	0	0.9399999998679526	0	44.95224268541907	-10.10967904912501	0	60.13858177341545	1.04961625942595	-5.022765501998462	0	0	44.95224268541907	-10.10967904912501	0	60.13858177341545	1.04961625942595	-5.022765501998462	0	0	0.764510284077792	-1.362971286172209	14.80209381162583	-13.13784885508748	-1.383526897415757	-23.93964823987764	7.94861347133741	1.258005510406887	0	0	0	-11.54916563884201	0	88.77076315814972	1.258005510406887	0	0
3.46	1.183348126478048	-1.60512074381397	-88.98729386814004	0	0.9399999998679526	0	44.95225477767696	-10.10958459934179	0	60.1385536581566	1.049615768722113	-5.022740060048421	0	0	44.95225477767696	-10.10958459934179	0	60.1385536581566	1.049615768722113	-5.022740060048421	0	0	0.8182909549244308	-1.326954596971424	15.11452641468514	-13.11460238470895	-1.374149356686785	-23.90940741782434	7.982812116275461	1.257781980648241	0	0	0	-11.54962039298006	0	88.77098154349504	1.257781980648241	0	0
3.47	1.153895295192074	-1.590372305472362	-89.23136003924709	0	0.9399999998679526	0	44.95245217352612	-10.10810075028123	0	60.13810293166706	1.049607902060845	-5.02234845996837	0	0	44.95245217352612	-10.10810075028123	0	60.13810293166706	1.049607902060845	-5.02234845996837	0	0	0.8568331738856074	-1.283472036069305	15.40693891119695	-13.13463515218678	-1.369480534481931	-23.96148037661148	7.990458299329148	1.254134351427871	0	0	0	-11.55702288784397	0	88.77454522493565	1.254134351427871	0	0
3.48	1.183224820005073	-1.596046321934103	-89.06152913763843	0	0.9399999998679526	0	44.95265652614885	-10.10658890018716	0	60.13763576595286	1.049599748480979	-5.021952029652991	0	0	44.95265652614885	-10.10658890018716	0	60.13763576595286	1.049599748480979	-5.021952029652991	0	0	0.8891843124747442	-1.316353126905764	15.21514997855122	-13.18020356545761	-1.363140040745296	-23.93013063853233	7.977592612046266	1.250350631297024	0	0	0	-11.56471066740553	0	88.77824186562016	1.250350631297024	0	0
3.49	1.196623128608437	-1.591425428141831	-88.85709019752885	0	0.9399999998679526	0	44.9528544394264	-10.10515309198923	0	60.13718264125286	1.049591839963042	-5.021578527114603	0	0	44.9528544394264	-10.10515309198923	0	60.13718264125286	1.049591839963042	-5.021578527114603	0	0	0.9089723505301638	-1.342062670852599	14.97631628841271	-13.18075679871444	-1.358947787997655	-23.86268563127617	7.958978062873173	1.246677242235442	0	0	0	-11.57218499913701	0	88.78183071486264	1.246677242235442	0	0
3.5	1.222000269199107	-1.585775978292009	-88.85197151602362	0	0.9399999998679526	0	44.95296779718617	-10.1043463442847	0	60.13692261052352	1.049587301570659	-5.021370145958009	0	0	44.95296779718617	-10.1043463442847	0	60.13692261052352	1.049587301570659	-5.021370145958009	0	0	0.9097328399989747	-1.367676418424569	14.90725091760309	-13.15833093327988	-1.351854085069584	-23.7696951417821	8.019884420519912	1.244567772714645	0	0	0	-11.57648396995909	0	88.78389163706515	1.244567772714645	0	0
